
<global>
amp_veltrack=0
ampeg_release=0.35
master-volume=3
</global>

<group>
group_label=Group_0-32
xfin_hicc1=32
xfout_hicc1=64
xfout_locc1=32

<region>
hivel=127
key=A#5
lovel=0
offset=13041
sample=Glock_soft_Tremolo_PP_A#1.opus
volume=6.0
</region>

<region>
hivel=127
key=A#6
lovel=0
offset=16688
sample=Glock_soft_Tremolo_PP_A#2.opus
volume=6.0
</region>

<region>
hivel=127
key=A#7
lovel=0
offset=7888
sample=Glock_soft_Tremolo_PP_A#3.opus
volume=6.0
</region>

<region>
hivel=127
key=A5
lovel=0
offset=1511
sample=Glock_soft_Tremolo_PP_A1.opus
volume=6.0
</region>

<region>
hivel=127
key=A6
lovel=0
offset=15424
sample=Glock_soft_Tremolo_PP_A2.opus
volume=6.0
</region>

<region>
hivel=127
key=A7
lovel=0
offset=17041
sample=Glock_soft_Tremolo_PP_A3.opus
volume=6.0
</region>

<region>
hivel=127
key=B5
lovel=0
offset=2248
sample=Glock_soft_Tremolo_PP_B1.opus
volume=6.0
</region>

<region>
hivel=127
key=B6
lovel=0
offset=8200
sample=Glock_soft_Tremolo_PP_B2.opus
volume=6.0
</region>

<region>
hivel=127
key=B7
lovel=0
offset=11137
sample=Glock_soft_Tremolo_PP_B3.opus
volume=6.0
</region>

<region>
hivel=127
key=C#6
lovel=0
offset=11322
sample=Glock_soft_Tremolo_PP_C#2.opus
volume=6.0
</region>

<region>
hivel=127
key=C#7
lovel=0
offset=11379
sample=Glock_soft_Tremolo_PP_C#3.opus
volume=6.0
</region>

<region>
hivel=127
key=C#8
lovel=0
offset=7579
sample=Glock_soft_Tremolo_PP_C#4.opus
volume=6.0
</region>

<region>
hivel=127
key=C6
lovel=0
offset=7432
sample=Glock_soft_Tremolo_PP_C2.opus
volume=6.0
</region>

<region>
hivel=127
key=C7
lovel=0
offset=8237
sample=Glock_soft_Tremolo_PP_C3.opus
volume=6.0
</region>

<region>
hivel=127
key=C8
lovel=0
offset=302
sample=Glock_soft_Tremolo_PP_C4.opus
volume=6.0
</region>

<region>
hivel=127
key=D#6
lovel=0
offset=14357
sample=Glock_soft_Tremolo_PP_D#2.opus
volume=6.0
</region>

<region>
hivel=127
key=D#7
lovel=0
offset=14015
sample=Glock_soft_Tremolo_PP_D#3.opus
volume=6.0
</region>

<region>
hivel=127
key=D#8
lovel=0
offset=11886
sample=Glock_soft_Tremolo_PP_D#4.opus
volume=6.0
</region>

<region>
hivel=127
key=D6
lovel=0
offset=5092
sample=Glock_soft_Tremolo_PP_D2.opus
volume=6.0
</region>

<region>
hivel=127
key=D7
lovel=0
offset=3767
sample=Glock_soft_Tremolo_PP_D3.opus
volume=6.0
</region>

<region>
hivel=127
key=D8
lovel=0
offset=11981
sample=Glock_soft_Tremolo_PP_D4.opus
volume=6.0
</region>

<region>
hivel=127
key=E6
lovel=0
offset=17484
sample=Glock_soft_Tremolo_PP_E2.opus
volume=6.0
</region>

<region>
hivel=127
key=E7
lovel=0
offset=8664
sample=Glock_soft_Tremolo_PP_E3.opus
volume=6.0
</region>

<region>
hivel=127
key=E8
lovel=0
offset=14009
sample=Glock_soft_Tremolo_PP_E4.opus
volume=6.0
</region>

<region>
hivel=127
key=F#5
lovel=0
offset=11149
sample=Glock_soft_Tremolo_PP_F#1.opus
volume=6.0
</region>

<region>
hivel=127
key=F#6
lovel=0
offset=1380
sample=Glock_soft_Tremolo_PP_F#2.opus
volume=6.0
</region>

<region>
hivel=127
key=F#7
lovel=0
offset=10058
sample=Glock_soft_Tremolo_PP_F#3.opus
volume=6.0
</region>

<region>
hivel=127
key=F5
lovel=0
offset=12772
sample=Glock_soft_Tremolo_PP_F1.opus
volume=6.0
</region>

<region>
hivel=127
key=F6
lovel=0
offset=13005
sample=Glock_soft_Tremolo_PP_F2.opus
volume=6.0
</region>

<region>
hivel=127
key=F7
lovel=0
offset=16792
sample=Glock_soft_Tremolo_PP_F3.opus
volume=6.0
</region>

<region>
hivel=127
key=F8
lovel=0
offset=14099
sample=Glock_soft_Tremolo_PP_F4.opus
volume=6.0
</region>

<region>
hivel=127
key=G#5
lovel=0
offset=6499
sample=Glock_soft_Tremolo_PP_G#1.opus
volume=6.0
</region>

<region>
hivel=127
key=G#6
lovel=0
offset=2928
sample=Glock_soft_Tremolo_PP_G#2.opus
volume=6.0
</region>

<region>
hivel=127
key=G#7
lovel=0
offset=213
sample=Glock_soft_Tremolo_PP_G#3.opus
volume=6.0
</region>

<region>
hivel=127
key=G5
lovel=0
offset=4214
sample=Glock_soft_Tremolo_PP_G1.opus
volume=6.0
</region>

<region>
hivel=127
key=G6
lovel=0
offset=8431
sample=Glock_soft_Tremolo_PP_G2.opus
volume=6.0
</region>

<region>
hivel=127
key=G7
lovel=0
offset=13360
sample=Glock_soft_Tremolo_PP_G3.opus
volume=6.0
</region>
</group>

<group>
group_label=Group_33-64
xfin_hicc1=64
xfin_locc1=33
xfout_hicc1=95
xfout_locc1=64

<region>
hivel=127
key=A#5
lovel=0
offset=10549
sample=Glock_soft_Tremolo_MP_A#1.opus
</region>

<region>
hivel=127
key=A#6
lovel=0
offset=11241
sample=Glock_soft_Tremolo_MP_A#2.opus
</region>

<region>
hivel=127
key=A#7
lovel=0
sample=Glock_soft_Tremolo_MP_A#3.opus
</region>

<region>
hivel=127
key=A5
lovel=0
offset=5302
sample=Glock_soft_Tremolo_MP_A1.opus
</region>

<region>
hivel=127
key=A6
lovel=0
offset=1464
sample=Glock_soft_Tremolo_MP_A2.opus
</region>

<region>
hivel=127
key=A7
lovel=0
sample=Glock_soft_Tremolo_MP_A3.opus
</region>

<region>
hivel=127
key=B5
lovel=0
offset=8617
sample=Glock_soft_Tremolo_MP_B1.opus
</region>

<region>
hivel=127
key=B6
lovel=0
sample=Glock_soft_Tremolo_MP_B2.opus
</region>

<region>
hivel=127
key=B7
lovel=0
sample=Glock_soft_Tremolo_MP_B3.opus
</region>

<region>
hivel=127
key=C#6
lovel=0
offset=23524
sample=Glock_soft_Tremolo_MP_C#2.opus
</region>

<region>
hivel=127
key=C#7
lovel=0
sample=Glock_soft_Tremolo_MP_C#3.opus
</region>

<region>
hivel=127
key=C#8
lovel=0
sample=Glock_soft_Tremolo_MP_C#4.opus
</region>

<region>
hivel=127
key=C6
lovel=0
sample=Glock_soft_Tremolo_MP_C2.opus
</region>

<region>
hivel=127
key=C7
lovel=0
offset=1215
sample=Glock_soft_Tremolo_MP_C3.opus
</region>

<region>
hivel=127
key=C8
lovel=0
sample=Glock_soft_Tremolo_MP_C4.opus
</region>

<region>
hivel=127
key=D#6
lovel=0
offset=8482
sample=Glock_soft_Tremolo_MP_D#2.opus
</region>

<region>
hivel=127
key=D#7
lovel=0
sample=Glock_soft_Tremolo_MP_D#3.opus
</region>

<region>
hivel=127
key=D#8
lovel=0
offset=12153
sample=Glock_soft_Tremolo_MP_D#4.opus
</region>

<region>
hivel=127
key=D6
lovel=0
offset=7699
sample=Glock_soft_Tremolo_MP_D2.opus
</region>

<region>
hivel=127
key=D7
lovel=0
sample=Glock_soft_Tremolo_MP_D3.opus
</region>

<region>
hivel=127
key=D8
lovel=0
sample=Glock_soft_Tremolo_MP_D4.opus
</region>

<region>
hivel=127
key=E6
lovel=0
offset=3606
sample=Glock_soft_Tremolo_MP_E2.opus
</region>

<region>
hivel=127
key=E7
lovel=0
offset=10134
sample=Glock_soft_Tremolo_MP_E3.opus
</region>

<region>
hivel=127
key=E8
lovel=0
offset=12036
sample=Glock_soft_Tremolo_MP_E4.opus
</region>

<region>
hivel=127
key=F#5
lovel=0
offset=12541
sample=Glock_soft_Tremolo_MP_F#1.opus
</region>

<region>
hivel=127
key=F#6
lovel=0
offset=8604
sample=Glock_soft_Tremolo_MP_F#2.opus
</region>

<region>
hivel=127
key=F#7
lovel=0
sample=Glock_soft_Tremolo_MP_F#3.opus
</region>

<region>
hivel=127
key=F5
lovel=0
offset=12473
sample=Glock_soft_Tremolo_MP_F1.opus
</region>

<region>
hivel=127
key=F6
lovel=0
sample=Glock_soft_Tremolo_MP_F2.opus
</region>

<region>
hivel=127
key=F7
lovel=0
sample=Glock_soft_Tremolo_MP_F3.opus
</region>

<region>
hivel=127
key=F8
lovel=0
offset=12525
sample=Glock_soft_Tremolo_MP_F4.opus
</region>

<region>
hivel=127
key=G#5
lovel=0
offset=950
sample=Glock_soft_Tremolo_MP_G#1.opus
</region>

<region>
hivel=127
key=G#6
lovel=0
sample=Glock_soft_Tremolo_MP_G#2.opus
</region>

<region>
hivel=127
key=G#7
lovel=0
sample=Glock_soft_Tremolo_MP_G#3.opus
</region>

<region>
hivel=127
key=G5
lovel=0
offset=5589
sample=Glock_soft_Tremolo_MP_G1.opus
</region>

<region>
hivel=127
key=G6
lovel=0
sample=Glock_soft_Tremolo_MP_G2.opus
</region>

<region>
hivel=127
key=G7
lovel=0
offset=13292
sample=Glock_soft_Tremolo_MP_G3.opus
</region>
</group>

<group>
group_label=Group_65-96
xfin_hicc1=96
xfin_locc1=65
xfout_hicc1=127
xfout_locc1=96

<region>
hivel=127
key=A#5
lovel=0
sample=Glock_soft_Tremolo_MF_A#1.opus
</region>

<region>
hivel=127
key=A#6
lovel=0
sample=Glock_soft_Tremolo_MF_A#2.opus
</region>

<region>
hivel=127
key=A#7
lovel=0
sample=Glock_soft_Tremolo_MF_A#3.opus
</region>

<region>
hivel=127
key=A5
lovel=0
sample=Glock_soft_Tremolo_MF_A1.opus
</region>

<region>
hivel=127
key=A6
lovel=0
sample=Glock_soft_Tremolo_MF_A2.opus
</region>

<region>
hivel=127
key=A7
lovel=0
sample=Glock_soft_Tremolo_MF_A3.opus
</region>

<region>
hivel=127
key=B5
lovel=0
sample=Glock_soft_Tremolo_MF_B1.opus
</region>

<region>
hivel=127
key=B6
lovel=0
sample=Glock_soft_Tremolo_MF_B2.opus
</region>

<region>
hivel=127
key=B7
lovel=0
sample=Glock_soft_Tremolo_MF_B3.opus
</region>

<region>
hivel=127
key=C#6
lovel=0
sample=Glock_soft_Tremolo_MF_C#2.opus
</region>

<region>
hivel=127
key=C#7
lovel=0
sample=Glock_soft_Tremolo_MF_C#3.opus
</region>

<region>
hivel=127
key=C#8
lovel=0
sample=Glock_soft_Tremolo_MF_C#4.opus
</region>

<region>
hivel=127
key=C6
lovel=0
sample=Glock_soft_Tremolo_MF_C2.opus
</region>

<region>
hivel=127
key=C7
lovel=0
offset=2358
sample=Glock_soft_Tremolo_MF_C3.opus
</region>

<region>
hivel=127
key=C8
lovel=0
sample=Glock_soft_Tremolo_MF_C4.opus
</region>

<region>
hivel=127
key=D#6
lovel=0
sample=Glock_soft_Tremolo_MF_D#2.opus
</region>

<region>
hivel=127
key=D#7
lovel=0
sample=Glock_soft_Tremolo_MF_D#3.opus
</region>

<region>
hivel=127
key=D#8
lovel=0
sample=Glock_soft_Tremolo_MF_D#4.opus
</region>

<region>
hivel=127
key=D6
lovel=0
sample=Glock_soft_Tremolo_MF_D2.opus
</region>

<region>
hivel=127
key=D7
lovel=0
sample=Glock_soft_Tremolo_MF_D3.opus
</region>

<region>
hivel=127
key=D8
lovel=0
sample=Glock_soft_Tremolo_MF_D4.opus
</region>

<region>
hivel=127
key=E6
lovel=0
sample=Glock_soft_Tremolo_MF_E2.opus
</region>

<region>
hivel=127
key=E7
lovel=0
sample=Glock_soft_Tremolo_MF_E3.opus
</region>

<region>
hivel=127
key=E8
lovel=0
sample=Glock_soft_Tremolo_MF_E4.opus
</region>

<region>
hivel=127
key=F#5
lovel=0
sample=Glock_soft_Tremolo_MF_F#1.opus
</region>

<region>
hivel=127
key=F#6
lovel=0
sample=Glock_soft_Tremolo_MF_F#2.opus
</region>

<region>
hivel=127
key=F#7
lovel=0
sample=Glock_soft_Tremolo_MF_F#3.opus
</region>

<region>
hivel=127
key=F5
lovel=0
sample=Glock_soft_Tremolo_MF_F1.opus
</region>

<region>
hivel=127
key=F6
lovel=0
sample=Glock_soft_Tremolo_MF_F2.opus
</region>

<region>
hivel=127
key=F7
lovel=0
sample=Glock_soft_Tremolo_MF_F3.opus
</region>

<region>
hivel=127
key=F8
lovel=0
sample=Glock_soft_Tremolo_MF_F4.opus
</region>

<region>
hivel=127
key=G#5
lovel=0
sample=Glock_soft_Tremolo_MF_G#1.opus
</region>

<region>
hivel=127
key=G#6
lovel=0
sample=Glock_soft_Tremolo_MF_G#2.opus
</region>

<region>
hivel=127
key=G#7
lovel=0
sample=Glock_soft_Tremolo_MF_G#3.opus
</region>

<region>
hivel=127
key=G5
lovel=0
sample=Glock_soft_Tremolo_MF_G1.opus
</region>

<region>
hivel=127
key=G6
lovel=0
offset=2349
sample=Glock_soft_Tremolo_MF_G2.opus
</region>

<region>
hivel=127
key=G7
lovel=0
sample=Glock_soft_Tremolo_MF_G3.opus
</region>
</group>

<group>
group_label=Group_97-127
xfin_hicc1=127
xfin_locc1=97
xfout_hicc1=127
xfout_locc1=127

<region>
hivel=127
key=A#5
lovel=0
sample=Glock_soft_Tremolo_FF_A#1.opus
</region>

<region>
hivel=127
key=A#6
lovel=0
sample=Glock_soft_Tremolo_FF_A#2.opus
</region>

<region>
hivel=127
key=A#7
lovel=0
sample=Glock_soft_Tremolo_FF_A#3.opus
</region>

<region>
hivel=127
key=A5
lovel=0
sample=Glock_soft_Tremolo_FF_A1.opus
</region>

<region>
hivel=127
key=A6
lovel=0
sample=Glock_soft_Tremolo_FF_A2.opus
</region>

<region>
hivel=127
key=A7
lovel=0
sample=Glock_soft_Tremolo_FF_A3.opus
</region>

<region>
hivel=127
key=B5
lovel=0
sample=Glock_soft_Tremolo_FF_B1.opus
</region>

<region>
hivel=127
key=B6
lovel=0
sample=Glock_soft_Tremolo_FF_B2.opus
</region>

<region>
hivel=127
key=B7
lovel=0
sample=Glock_soft_Tremolo_FF_B3.opus
</region>

<region>
hivel=127
key=C#6
lovel=0
sample=Glock_soft_Tremolo_FF_C#2.opus
</region>

<region>
hivel=127
key=C#7
lovel=0
sample=Glock_soft_Tremolo_FF_C#3.opus
</region>

<region>
hivel=127
key=C#8
lovel=0
sample=Glock_soft_Tremolo_FF_C#4.opus
</region>

<region>
hivel=127
key=C6
lovel=0
sample=Glock_soft_Tremolo_FF_C2.opus
</region>

<region>
hivel=127
key=C7
lovel=0
sample=Glock_soft_Tremolo_FF_C3.opus
</region>

<region>
hivel=127
key=C8
lovel=0
sample=Glock_soft_Tremolo_FF_C4.opus
</region>

<region>
hivel=127
key=D#6
lovel=0
sample=Glock_soft_Tremolo_FF_D#2.opus
</region>

<region>
hivel=127
key=D#7
lovel=0
sample=Glock_soft_Tremolo_FF_D#3.opus
</region>

<region>
hivel=127
key=D#8
lovel=0
sample=Glock_soft_Tremolo_FF_D#4.opus
</region>

<region>
hivel=127
key=D6
lovel=0
sample=Glock_soft_Tremolo_FF_D2.opus
</region>

<region>
hivel=127
key=D7
lovel=0
sample=Glock_soft_Tremolo_FF_D3.opus
</region>

<region>
hivel=127
key=D8
lovel=0
sample=Glock_soft_Tremolo_FF_D4.opus
</region>

<region>
hivel=127
key=E6
lovel=0
sample=Glock_soft_Tremolo_FF_E2.opus
</region>

<region>
hivel=127
key=E7
lovel=0
sample=Glock_soft_Tremolo_FF_E3.opus
</region>

<region>
hivel=127
key=E8
lovel=0
sample=Glock_soft_Tremolo_FF_E4.opus
</region>

<region>
hivel=127
key=F#5
lovel=0
sample=Glock_soft_Tremolo_FF_F#1.opus
</region>

<region>
hivel=127
key=F#6
lovel=0
sample=Glock_soft_Tremolo_FF_F#2.opus
</region>

<region>
hivel=127
key=F#7
lovel=0
sample=Glock_soft_Tremolo_FF_F#3.opus
</region>

<region>
hivel=127
key=F5
lovel=0
offset=3175
sample=Glock_soft_Tremolo_FF_F1.opus
</region>

<region>
hivel=127
key=F6
lovel=0
sample=Glock_soft_Tremolo_FF_F2.opus
</region>

<region>
hivel=127
key=F7
lovel=0
sample=Glock_soft_Tremolo_FF_F3.opus
</region>

<region>
hivel=127
key=F8
lovel=0
sample=Glock_soft_Tremolo_FF_F4.opus
</region>

<region>
hivel=127
key=G#5
lovel=0
sample=Glock_soft_Tremolo_FF_G#1.opus
</region>

<region>
hivel=127
key=G#6
lovel=0
sample=Glock_soft_Tremolo_FF_G#2.opus
</region>

<region>
hivel=127
key=G#7
lovel=0
sample=Glock_soft_Tremolo_FF_G#3.opus
</region>

<region>
hivel=127
key=G5
lovel=0
sample=Glock_soft_Tremolo_FF_G1.opus
</region>

<region>
hivel=127
key=G6
lovel=0
sample=Glock_soft_Tremolo_FF_G2.opus
</region>

<region>
hivel=127
key=G7
lovel=0
sample=Glock_soft_Tremolo_FF_G3.opus
</region>
</group>